<svg width="295" height="40" viewBox="0 0 295 40" fill="none" xmlns="http://www.w3.org/2000/svg">
<path d="M50.82 30V16.112H53.984L54.264 18.464C54.6933 17.6427 55.3093 16.9893 56.112 16.504C56.9333 16.0187 57.8947 15.776 58.996 15.776C60.7133 15.776 62.048 16.3173 63 17.4C63.952 18.4827 64.428 20.0693 64.428 22.16V30H60.844V22.496C60.844 21.3013 60.6013 20.3867 60.116 19.752C59.6307 19.1173 58.8747 18.8 57.848 18.8C56.84 18.8 56.0093 19.1547 55.356 19.864C54.7213 20.5733 54.404 21.5627 54.404 22.832V30H50.82ZM73.0632 30.336C71.3272 30.336 69.9832 29.7947 69.0312 28.712C68.0978 27.6293 67.6312 26.0427 67.6312 23.952V16.112H71.1872V23.616C71.1872 24.8107 71.4298 25.7253 71.9152 26.36C72.4005 26.9947 73.1658 27.312 74.2112 27.312C75.2005 27.312 76.0125 26.9573 76.6472 26.248C77.3005 25.5387 77.6272 24.5493 77.6272 23.28V16.112H81.2112V30H78.0472L77.7672 27.648C77.3378 28.4693 76.7125 29.1227 75.8912 29.608C75.0885 30.0933 74.1458 30.336 73.0632 30.336ZM83.5743 30L88.6143 23.056L83.5743 16.112H87.4103L90.9383 21.04L94.4383 16.112H98.3023L93.2343 23.056L98.3023 30H94.4383L90.9383 25.072L87.4103 30H83.5743ZM106.774 30C105.318 30 104.151 29.6453 103.274 28.936C102.396 28.2267 101.958 26.9667 101.958 25.156V19.108H99.5776V16.112H101.958L102.378 12.388H105.542V16.112H109.294V19.108H105.542V25.184C105.542 25.856 105.682 26.3227 105.962 26.584C106.26 26.8267 106.764 26.948 107.474 26.948H109.21V30H106.774ZM111.195 33.108L118.195 8.244H121.695L114.667 33.108H111.195Z" fill="white"/>
<path d="M124.156 30V16.112H127.32L127.628 17.988C128.076 17.316 128.664 16.784 129.392 16.392C130.139 15.9813 130.997 15.776 131.968 15.776C134.115 15.776 135.636 16.6067 136.532 18.268C137.036 17.5027 137.708 16.896 138.548 16.448C139.407 16 140.34 15.776 141.348 15.776C143.159 15.776 144.549 16.3173 145.52 17.4C146.491 18.4827 146.976 20.0693 146.976 22.16V30H143.392V22.496C143.392 21.3013 143.159 20.3867 142.692 19.752C142.244 19.1173 141.544 18.8 140.592 18.8C139.621 18.8 138.837 19.1547 138.24 19.864C137.661 20.5733 137.372 21.5627 137.372 22.832V30H133.788V22.496C133.788 21.3013 133.555 20.3867 133.088 19.752C132.621 19.1173 131.903 18.8 130.932 18.8C129.98 18.8 129.205 19.1547 128.608 19.864C128.029 20.5733 127.74 21.5627 127.74 22.832V30H124.156ZM155.167 30.336C153.972 30.336 152.992 30.1493 152.227 29.776C151.461 29.384 150.892 28.8707 150.519 28.236C150.145 27.6013 149.959 26.9013 149.959 26.136C149.959 24.848 150.463 23.8027 151.471 23C152.479 22.1973 153.991 21.796 156.007 21.796H159.535V21.46C159.535 20.508 159.264 19.808 158.723 19.36C158.181 18.912 157.509 18.688 156.707 18.688C155.979 18.688 155.344 18.8653 154.803 19.22C154.261 19.556 153.925 20.06 153.795 20.732H150.295C150.388 19.724 150.724 18.8467 151.303 18.1C151.9 17.3533 152.665 16.784 153.599 16.392C154.532 15.9813 155.577 15.776 156.735 15.776C158.713 15.776 160.272 16.2707 161.411 17.26C162.549 18.2493 163.119 19.6493 163.119 21.46V30H160.067L159.731 27.76C159.32 28.5067 158.741 29.1227 157.995 29.608C157.267 30.0933 156.324 30.336 155.167 30.336ZM155.979 27.536C157.005 27.536 157.799 27.2 158.359 26.528C158.937 25.856 159.301 25.0253 159.451 24.036H156.399C155.447 24.036 154.765 24.2133 154.355 24.568C153.944 24.904 153.739 25.324 153.739 25.828C153.739 26.3693 153.944 26.7893 154.355 27.088C154.765 27.3867 155.307 27.536 155.979 27.536ZM166.539 30V16.112H169.731L170.067 18.716C170.571 17.82 171.252 17.1107 172.111 16.588C172.988 16.0467 174.015 15.776 175.191 15.776V19.556H174.183C173.399 19.556 172.699 19.6773 172.083 19.92C171.467 20.1627 170.981 20.5827 170.627 21.18C170.291 21.7773 170.123 22.608 170.123 23.672V30H166.539ZM177.64 30V9.84H181.224V21.74L186.152 16.112H190.408L184.724 22.44L191.332 30H186.852L181.224 23.028V30H177.64ZM198.79 30.336C197.483 30.336 196.317 30.0187 195.29 29.384C194.263 28.7493 193.451 27.8813 192.854 26.78C192.257 25.6787 191.958 24.428 191.958 23.028C191.958 21.628 192.257 20.3867 192.854 19.304C193.451 18.2027 194.263 17.344 195.29 16.728C196.317 16.0933 197.483 15.776 198.79 15.776C199.835 15.776 200.75 15.972 201.534 16.364C202.318 16.756 202.953 17.3067 203.438 18.016V9.84H207.022V30H203.83L203.438 28.012C202.99 28.628 202.393 29.1693 201.646 29.636C200.918 30.1027 199.966 30.336 198.79 30.336ZM199.546 27.2C200.703 27.2 201.646 26.8173 202.374 26.052C203.121 25.268 203.494 24.2693 203.494 23.056C203.494 21.8427 203.121 20.8533 202.374 20.088C201.646 19.304 200.703 18.912 199.546 18.912C198.407 18.912 197.465 19.2947 196.718 20.06C195.971 20.8253 195.598 21.8147 195.598 23.028C195.598 24.2413 195.971 25.24 196.718 26.024C197.465 26.808 198.407 27.2 199.546 27.2ZM217.336 30.336C215.992 30.336 214.778 30.028 213.696 29.412C212.632 28.796 211.782 27.9467 211.148 26.864C210.532 25.7627 210.224 24.4933 210.224 23.056C210.224 21.6187 210.541 20.3587 211.176 19.276C211.81 18.1747 212.66 17.316 213.724 16.7C214.806 16.084 216.02 15.776 217.364 15.776C218.689 15.776 219.884 16.084 220.948 16.7C222.03 17.316 222.88 18.1747 223.496 19.276C224.13 20.3587 224.448 21.6187 224.448 23.056C224.448 24.4933 224.13 25.7627 223.496 26.864C222.88 27.9467 222.03 28.796 220.948 29.412C219.865 30.028 218.661 30.336 217.336 30.336ZM217.336 27.228C218.269 27.228 219.081 26.8827 219.772 26.192C220.462 25.4827 220.808 24.4373 220.808 23.056C220.808 21.6747 220.462 20.6387 219.772 19.948C219.081 19.2387 218.278 18.884 217.364 18.884C216.412 18.884 215.59 19.2387 214.9 19.948C214.228 20.6387 213.892 21.6747 213.892 23.056C213.892 24.4373 214.228 25.4827 214.9 26.192C215.59 26.8827 216.402 27.228 217.336 27.228ZM229.876 30L225.816 16.112H229.372L231.78 26.108L234.58 16.112H238.556L241.356 26.108L243.792 16.112H247.348L243.26 30H239.536L236.568 19.612L233.6 30H229.876ZM249.609 30V16.112H252.773L253.053 18.464C253.482 17.6427 254.098 16.9893 254.901 16.504C255.722 16.0187 256.684 15.776 257.785 15.776C259.502 15.776 260.837 16.3173 261.789 17.4C262.741 18.4827 263.217 20.0693 263.217 22.16V30H259.633V22.496C259.633 21.3013 259.39 20.3867 258.905 19.752C258.42 19.1173 257.664 18.8 256.637 18.8C255.629 18.8 254.798 19.1547 254.145 19.864C253.51 20.5733 253.193 21.5627 253.193 22.832V30H249.609ZM268.576 13.956C267.923 13.956 267.382 13.76 266.952 13.368C266.542 12.976 266.336 12.4813 266.336 11.884C266.336 11.2867 266.542 10.8013 266.952 10.428C267.382 10.036 267.923 9.84 268.576 9.84C269.23 9.84 269.762 10.036 270.172 10.428C270.602 10.8013 270.816 11.2867 270.816 11.884C270.816 12.4813 270.602 12.976 270.172 13.368C269.762 13.76 269.23 13.956 268.576 13.956ZM266.784 30V16.112H270.368V30H266.784ZM280.297 30C278.841 30 277.674 29.6453 276.797 28.936C275.92 28.2267 275.481 26.9667 275.481 25.156V19.108H273.101V16.112H275.481L275.901 12.388H279.065V16.112H282.817V19.108H279.065V25.184C279.065 25.856 279.205 26.3227 279.485 26.584C279.784 26.8267 280.288 26.948 280.997 26.948H282.733V30H280.297Z" fill="#41B38A"/>
<path d="M35.597 10.88H10.4031C9.23243 10.88 8.28003 11.8324 8.28003 13.0031V27.1569C8.28003 28.3277 9.23243 29.28 10.4031 29.28H35.597C36.7677 29.28 37.72 28.3277 37.72 27.1569V13.0031C37.72 11.8324 36.7677 10.88 35.597 10.88ZM24.84 25.5964L21.16 25.6V20.08L18.4 23.6185L15.64 20.08V25.6H11.96V14.56H15.64L18.4 18.24L21.16 14.56L24.84 14.5564V25.5964ZM30.3339 26.5164L25.76 20.08H28.52V14.56H32.2V20.08H34.96L30.3339 26.5164Z" fill="white"/>
</svg>
